<?xml version="1.0" encoding="UTF-8" standalone="no"?>
<svg
   xmlns:dc="http://purl.org/dc/elements/1.1/"
   xmlns:cc="http://creativecommons.org/ns#"
   xmlns:rdf="http://www.w3.org/1999/02/22-rdf-syntax-ns#"
   xmlns:svg="http://www.w3.org/2000/svg"
   xmlns="http://www.w3.org/2000/svg"
   xmlns:sodipodi="http://sodipodi.sourceforge.net/DTD/sodipodi-0.dtd"
   xmlns:inkscape="http://www.inkscape.org/namespaces/inkscape"
   width="100"
   height="100"
   viewBox="0 0 26.458333 26.458334"
   version="1.1"
   id="svg8"
   inkscape:version="1.0 (4035a4fb49, 2020-05-01)"
   sodipodi:docname="instagram logo.svg">
  <defs
     id="defs2" />
  <sodipodi:namedview
     inkscape:snap-nodes="false"
     inkscape:snap-object-midpoints="true"
     id="base"
     pagecolor="#ffffff"
     bordercolor="#666666"
     borderopacity="1.0"
     inkscape:pageopacity="0.0"
     inkscape:pageshadow="2"
     inkscape:zoom="2.0644679"
     inkscape:cx="15.653616"
     inkscape:cy="48.315101"
     inkscape:document-units="px"
     inkscape:current-layer="layer1"
     inkscape:document-rotation="0"
     showgrid="true"
     units="px"
     inkscape:snap-global="true"
     inkscape:window-width="1920"
     inkscape:window-height="986"
     inkscape:window-x="-11"
     inkscape:window-y="-11"
     inkscape:window-maximized="1"
     inkscape:snap-page="true">
    <inkscape:grid
       type="xygrid"
       id="grid847" />
  </sodipodi:namedview>
  <metadata
     id="metadata5">
    <rdf:RDF>
      <cc:Work
         rdf:about="">
        <dc:format>image/svg+xml</dc:format>
        <dc:type
           rdf:resource="http://purl.org/dc/dcmitype/StillImage" />
        <dc:title />
      </cc:Work>
    </rdf:RDF>
  </metadata>
  <g
     inkscape:label="Layer 1"
     inkscape:groupmode="layer"
     id="layer1">
    <path
       id="path853"
       style="fill:#b2b2b2;fill-opacity:1;stroke:none;stroke-width:0.264583px;stroke-linecap:butt;stroke-linejoin:miter;stroke-opacity:1"
       d="M 9.5725324,6.9128785 C 7.7500999,7.3123219 7.1475385,8.2785133 6.9128792,9.5725318 v 7.3132702 c 0.6470378,2.163638 1.6658469,2.345455 2.6596532,2.659654 h 7.3132726 c 1.590537,-0.323269 2.253102,-1.389195 2.659653,-2.659654 V 9.5725318 C 19.176409,7.7891195 18.144628,7.1540144 16.885805,6.9128785 Z m 7.8481286,1.1242658 a 1.0281643,1.0281643 0 0 1 1.028471,1.0280266 1.0281643,1.0281643 0 0 1 -1.028471,1.0284701 1.0281643,1.0281643 0 0 1 -1.028026,-1.0284701 1.0281643,1.0281643 0 0 1 1.028026,-1.0280266 z m -4.173754,1.0595149 a 4.118589,4.118589 0 0 1 4.118762,4.1187598 4.118589,4.118589 0 0 1 -4.118762,4.118316 4.118589,4.118589 0 0 1 -4.1183135,-4.118316 4.118589,4.118589 0 0 1 4.1183135,-4.1187598 z" />
    <path
       id="path849"
       style="fill:#b2b2b2;fill-opacity:1;stroke:none;stroke-width:0.264583;stroke-linecap:butt;stroke-linejoin:miter;stroke-miterlimit:4;stroke-dasharray:none;stroke-opacity:1"
       d="M 6.9847249,2.4433122 C 3.8726993,3.1254095 2.8440194,4.7750327 2.4433124,6.9847245 V 19.473609 c 1.1048915,3.694671 2.8443709,4.004882 4.5414125,4.541413 H 19.473608 c 2.716036,-0.552021 3.847178,-2.371953 4.541413,-4.541413 V 6.9847245 C 23.384825,3.9393337 21.623202,2.8550804 19.473608,2.4433122 Z M 8.798186,5.5757338 h 8.861961 C 19.185442,5.867913 20.43543,6.6372574 20.8826,8.7981847 v 8.8619643 c -0.492612,1.53939 -1.295227,2.830752 -3.222453,3.222451 H 8.798186 C 7.5940101,20.501893 6.359736,20.281787 5.5757335,17.660149 V 8.7981847 C 5.8600649,7.2302472 6.5899766,6.0597318 8.798186,5.5757338 Z" />
    <circle
       style="fill:#b2b2b2;fill-opacity:1;stroke:none;stroke-width:1.27;stroke-linecap:round;stroke-linejoin:round"
       id="path855"
       cx="13.24712"
       cy="13.215261"
       r="2.6211667" />
  </g>
</svg>
